<svg xmlns="http://www.w3.org/2000/svg" width="118" height="25.364" viewBox="0 0 118 25.364"><g transform="translate(-159.32 356.697)"><path d="M160.979-338.231l-1.659.958v8.239l1.659.958h3.762l1.66-.958v-1.617H164.97v1.287h-4.22v-7.581h4.22v1.287H166.4v-1.616l-1.66-.958Z" transform="translate(0 -14.684)" fill="#001535"></path><path d="M202.526-324.266l-1.659.958v5.379l1.659.958h2.761l1.66-.958v-5.379l-1.66-.958Zm3.032,6.051h-3.3v-4.806h3.3Z" transform="translate(-33.036 -25.788)" fill="#001535"></path><path d="M244.05-324.266l-1.344.772-1.33-.772h-1.445l-1.015.587-.343-.587h-1.044v7.224h1.387v-5.979h2.732v5.979h1.387v-5.979h2.732v5.979h1.387v-6.265l-1.659-.958Z" transform="translate(-62.188 -25.788)" fill="#001535"></path><path d="M298.028-324.266l-1.344.772-1.33-.772h-1.445l-1.015.587-.343-.587h-1.044v7.224h1.387v-5.979h2.732v5.979h1.387v-5.979h2.732v5.979h1.387v-6.265l-1.659-.958Z" transform="translate(-105.109 -25.788)" fill="#001535"></path><path d="M347.143-324.266l-1.659.958v5.379l1.659.958H349.9l1.66-.958v-5.379l-1.66-.958Zm3.032,6.051h-3.3v-4.806h3.3Z" transform="translate(-148.03 -25.788)" fill="#001535"></path><path d="M384.545-324.266l-1.016.587-.343-.587h-1.044v7.224h1.387v-5.979h3.3v5.979h1.388v-6.265l-1.66-.958Z" transform="translate(-177.179 -25.788)" fill="#001535"></path><path d="M426.676-323.916h-1.287l-1.359,5.593H424l-1.573-5.593h-1.473l-1.573,5.593h-.029l-1.359-5.593h-1.287l1.788,7.152h1.645l1.531-5.464h.028l1.545,5.464h1.645Z" transform="translate(-204.663 -26.066)" fill="#001535"></path><path d="M475.915-318.286h-4.263v-1.845h4.263v-3.176l-1.659-.958h-2.332l-1.659.958V-318l1.659.958h3.991Zm-4.263-4.734h2.875v1.644h-2.875Z" transform="translate(-247.251 -25.788)" fill="#001535"></path><path d="M505.547-323.916v1.244h3.548v1.731h-2.6l-1.659.958v2.332l1.659.958h1.588l1.015-.587,1.016.587h.372v-6.265l-1.659-.958Zm3.548,5.979h-2.875V-319.7h2.875Z" transform="translate(-274.737 -26.066)" fill="#001535"></path><path d="M542.5-329.535v-1.244h-1.717v-9.2H539.4v9.484l1.659.958Z" transform="translate(-302.221 -13.295)" fill="#001535"></path><path d="M558.921-324.538h1.445v-1.244H558.65v-4.663h1.717v-1.244H558.65v-2l-1.387.8v1.2h-1.316v1.244h1.316v4.949Z" transform="translate(-315.381 -18.292)" fill="#001535"></path><path d="M586.91-336.759l-1.016.587v-3.8h-1.387v10.442h1.387v-5.979h3.447v5.979h1.388V-335.8l-1.659-.958Z" transform="translate(-338.092 -13.295)" fill="#001535"></path><path d="M508.728-265.925v4.067c-.322,0-.626,0-.93,0a.254.254,0,0,1-.225-.109q-1.1-1.351-2.2-2.695a.346.346,0,0,1-.085-.242c0-.335,0-.67,0-1.021h-.777a.18.18,0,0,0-.012.039c0,.43,0,.86,0,1.289a.271.271,0,0,0,.064.152q1.312,1.63,2.628,3.258a.241.241,0,0,0,.212.1c.389,0,1.266,0,1.323,0,0,.155,0,.286,0,.416a.24.24,0,0,1-.068.183c-.138.151-.275.3-.406.46a.217.217,0,0,1-.191.081c-.184,0-.368-.006-.551,0a.246.246,0,0,1-.227-.1c-.172-.219-.569-.716-.593-.763l-.521.593c.012.024.537.676.789.992a.184.184,0,0,0,.162.072c.436,0,.872,0,1.308,0a.226.226,0,0,0,.19-.084q.408-.469.825-.93a.269.269,0,0,0,.074-.2c0-1.814-.013-5.559-.013-5.559Z" transform="translate(-274.474 -72.178)" fill="#32fa9f"></path><path d="M454.966-262a.219.219,0,0,1-.187.088q-1.206,0-2.411,0a.2.2,0,0,1-.174-.081c-.195-.234-.4-.462-.589-.7a.29.29,0,0,1-.064-.167c-.005-.456,0-.912,0-1.368a.259.259,0,0,1,.07-.183q.3-.343.594-.693a.2.2,0,0,1,.173-.083q1.166,0,2.332,0a.2.2,0,0,1,.173.082c.188.226.38.448.572.67.03.035.062.067.1.112l.472-.564c-.3-.349-.589-.693-.886-1.032a.22.22,0,0,0-.151-.054c-1,0-2,0-2.994,0a.219.219,0,0,0-.188.086q-.492.583-.993,1.159a.28.28,0,0,0-.072.2q0,.983,0,1.965a.28.28,0,0,0,.076.2c.327.376.652.754.972,1.136a.28.28,0,0,0,.241.109c.951,0,1.9-.01,2.852,0a.563.563,0,0,0,.514-.24c.226-.295.478-.569.725-.858l-.485-.569C455.4-262.508,455.181-262.255,454.966-262Z" transform="translate(-231.728 -72.142)" fill="#32fa9f"></path><path d="M565.725-270.965h-.8v1.029h-1.436v.789h1.441v.2q0,1.313,0,2.625a.32.32,0,0,0,.076.229q.393.45.776.91a.232.232,0,0,0,.2.095c.42,0,.84,0,1.26,0,.04,0,.08-.007.119-.011v-.778c-.338,0-.664,0-.989,0a.223.223,0,0,1-.2-.093c-.119-.153-.244-.3-.372-.448a.3.3,0,0,1-.076-.214c0-.791,0-1.582,0-2.373,0-.045.008-.089.013-.15h1.626v-.783h-1.644Z" transform="translate(-321.383 -68.171)" fill="#32fa9f"></path><path d="M484.716-265.877a.247.247,0,0,0-.215-.1c-.567,0-1.135,0-1.7,0h-.282L482-265.3l-.035-.014v-.657h-.709a.433.433,0,0,0-.065.011v4.828h.782v-.2c0-.88,0-1.761,0-2.641a.319.319,0,0,1,.081-.227c.258-.3.513-.6.766-.9a.2.2,0,0,1,.172-.084q.575.006,1.15,0a.2.2,0,0,1,.174.08c.212.253.43.5.645.752.036.042.075.083.123.136l.519-.612c-.037-.046-.065-.083-.1-.118C485.246-265.254,484.977-265.563,484.716-265.877Z" transform="translate(-255.943 -72.141)" fill="#32fa9f"></path><path d="M592.951-265.8a.279.279,0,0,0-.24-.106h-2.8a.28.28,0,0,0-.24.106c-.318.38-.648.76-.972,1.134a.3.3,0,0,0-.078.2q.009.981,0,1.961a.3.3,0,0,0,.073.2c.335.385.665.771.995,1.157a.207.207,0,0,0,.185.09c.436-.006,2.442-.006,2.876,0a.207.207,0,0,0,.185-.09c.329-.385.659-.771.995-1.157a.3.3,0,0,0,.073-.2q-.008-.981,0-1.961a.3.3,0,0,0-.078-.2C593.6-265.041,593.27-265.421,592.951-265.8Zm.184,3.179c-.2.229-.4.458-.592.693a.2.2,0,0,1-.173.078h-2.116a.2.2,0,0,1-.173-.078c-.2-.235-.391-.464-.592-.693a.256.256,0,0,1-.073-.184c.006-.458,0-.911.006-1.369a.308.308,0,0,1,.061-.168c.2-.235.4-.464.592-.693a.2.2,0,0,1,.173-.084h2.128a.2.2,0,0,1,.173.084c.2.229.4.458.592.693a.308.308,0,0,1,.062.168c.005.458,0,.911.005,1.369A.257.257,0,0,1,593.135-262.622Z" transform="translate(-341.363 -72.193)" fill="#32fa9f"></path><path d="M539.677-265.858a.279.279,0,0,0-.24-.106h-2.8a.28.28,0,0,0-.24.106c-.085.1-.171.2-.257.3v-.423h-.8v6.781h.8v-2.324l.274.318a.207.207,0,0,0,.185.09c.435-.006,2.442-.006,2.876,0a.206.206,0,0,0,.184-.09c.33-.385.659-.771.995-1.157a.3.3,0,0,0,.073-.2q-.008-.981,0-1.961a.3.3,0,0,0-.078-.2C540.325-265.1,540-265.478,539.677-265.858Zm.184,3.179c-.2.229-.4.458-.592.693a.2.2,0,0,1-.173.078h-2.116a.2.2,0,0,1-.173-.078c-.2-.235-.391-.464-.592-.693a.256.256,0,0,1-.073-.184c.006-.458,0-.911.006-1.369a.307.307,0,0,1,.061-.168c.2-.235.4-.464.592-.693a.2.2,0,0,1,.173-.084H539.1a.2.2,0,0,1,.173.084c.2.229.4.458.592.693a.308.308,0,0,1,.062.168c.006.458,0,.911.006,1.369A.257.257,0,0,1,539.861-262.679Z" transform="translate(-298.999 -72.135)" fill="#32fa9f"></path><path d="M667.7-353.294l-5.8-3.4-11.569,6.671-.01,13.344,5.886,3.389,11.537-6.666Zm-11.489,19.6-5.537-3.188.009-12.941,5.339-3.079v12.924l5.523,3.2Zm5.5-3.386-5.344-3.1V-352.9l5.344,3.088Zm.349,0v-12.931L656.54-353.2l5.363-3.093,5.45,3.2.047,12.934Z" transform="translate(-390.428 0)" fill="#32fa9f"></path></g></svg>